<?xml version="1.0" standalone="no"?><!DOCTYPE svg PUBLIC "-//W3C//DTD SVG 1.1//EN" "http://www.w3.org/Graphics/SVG/1.1/DTD/svg11.dtd"><svg t="1622859045733" class="icon" viewBox="0 0 1024 1024" version="1.1" xmlns="http://www.w3.org/2000/svg" p-id="3495" width="128" height="128" xmlns:xlink="http://www.w3.org/1999/xlink"><defs><style type="text/css"></style></defs><path d="M492.6 506.7H232.5c-21.4 0-38.8 15.2-38.8 33.9v310.2c0 18.7 17.4 33.9 38.8 33.9h260.1v-378zM791.5 506.7H531.4v377.9h260.1c21.4 0 38.8-15.2 38.8-33.9V540.6c0-18.7-17.4-33.9-38.8-33.9zM807 333.3H603.2c24.6-6.5 50.7-12 79.7-16.6 45.2-7.2 79.6-40.2 83.6-80.2 4.9-49.1-36.9-92.6-93.2-96.9-45.8-3.5-89 20.3-105 57.9-10.7 25.2-21.9 47.5-34.1 68.2L512 303.3l-22.1-37.5c-12.2-20.7-23.4-43-34.1-68.2-16-37.6-59.2-61.4-105-57.9-56.3 4.3-98.1 47.8-93.2 96.9 4 40 38.4 72.9 83.6 80.2 29 4.6 55.1 10.1 79.7 16.6H217c-21.4 0-38.8 15.2-38.8 33.9V435c0 18.7 17.4 33.9 38.8 33.9h275.6V324.5c0-9.4 8.7-16.9 19.4-16.9s19.4 7.6 19.4 16.9v144.3H807c21.4 0 38.8-15.2 38.8-33.9v-67.7c0-18.7-17.3-33.9-38.8-33.9z m-371.4-31.4c-27-7.3-55.6-13.3-87.5-18.4-28.1-4.5-49.4-25-51.9-49.8-3.1-30.5 22.9-57.5 57.9-60.2 1.9-0.1 3.7-0.2 5.5-0.2 26.4 0 50.4 14.3 59.7 36.2 11.3 26.5 23 50 36 71.9l18.2 30.8-37.9-10.3z m114.9 10.2l18.2-30.8c13-21.9 24.7-45.5 36-71.9 9.3-21.8 33.3-36.2 59.7-36.2 1.8 0 3.7 0.1 5.5 0.2 35 2.7 60.9 29.7 57.9 60.2-2.5 24.8-23.8 45.3-51.9 49.8-31.8 5.1-60.4 11.1-87.5 18.4l-37.9 10.3z" fill="#2c2c2c" p-id="3496"></path></svg>