<?xml version="1.0" standalone="no"?><!DOCTYPE svg PUBLIC "-//W3C//DTD SVG 1.1//EN" "http://www.w3.org/Graphics/SVG/1.1/DTD/svg11.dtd"><svg t="1622766679871" class="icon" viewBox="0 0 1024 1024" version="1.1" xmlns="http://www.w3.org/2000/svg" p-id="2138" width="128" height="128" xmlns:xlink="http://www.w3.org/1999/xlink"><defs><style type="text/css"></style></defs><path d="M930.2 275.5c-19.5-28.2-51.6-45.1-85.8-45.1H263.2l-3.6-18.2c-6.7-33.8-29.2-61-59-74.7-13.3-6.1-28-9.5-43.4-9.5H106c-10.4 0-19.6 5-25.5 12.7-4.1 5.3-6.5 12-6.5 19.3 0 17.7 14.3 32 32 32h51.3c19.3 0.1 35.9 13.7 39.7 32.7l31.5 159.1c20.9 119.9 30.9 167.5 37.3 188.2l16.1 81.2c6.4 31.9 34.3 54.9 66.8 55H798c17.7 0 32-14.3 32-32s-14.3-32-32-32H348.6c-2 0-3.8-1.4-4.2-3.4l-7.6-38.6c19.6 0.5 46.2 0.6 82.9 0.6 16.7 0 35.5 0 56.6-0.1 95.3-0.3 207.1-1.4 284.1-2.3 58-0.5 109.6-36.7 129.8-91L942 371.9c12.1-32.2 7.7-68.2-11.8-96.4zM370.3 739c-31.5-0.1-60 18.9-72.1 48-12.1 29.1-5.5 62.6 16.8 84.9s55.8 29 84.9 16.9c29.1-12 48.1-40.5 48.1-72 0.1-42.9-34.7-77.7-77.7-77.8zM740.6 739c-31.5-0.1-60 18.9-72.1 48-12.1 29.1-5.5 62.6 16.8 84.9 22.3 22.3 55.8 29 84.9 16.9 29.1-12 48.1-40.5 48.1-72 0-42.9-34.8-77.7-77.7-77.8z" p-id="2139" fill="#ff5777"></path></svg>