<?xml version="1.0" standalone="no"?><!DOCTYPE svg PUBLIC "-//W3C//DTD SVG 1.1//EN" "http://www.w3.org/Graphics/SVG/1.1/DTD/svg11.dtd"><svg t="1622766608715" class="icon" viewBox="0 0 1024 1024" version="1.1" xmlns="http://www.w3.org/2000/svg" p-id="1352" width="128" height="128" xmlns:xlink="http://www.w3.org/1999/xlink"><defs><style type="text/css"></style></defs><path d="M901.3 357.4L555.8 110c-25-17.9-60-17.9-84.9 0L124.7 357.4C107.9 369.5 98 388 98 407.6v456.6c0 35.1 31 63.6 69.2 63.6h691.7c38.2 0 69.2-28.5 69.2-63.6V407.6c-0.1-19.6-10-38.1-26.8-50.2zM653.5 709.8c0 13.8-11.2 25-25 25H396.1c-13.8 0-25-11.2-25-25s11.2-25 25-25h232.5c13.7 0 24.9 11.2 24.9 25z" p-id="1353" fill="#2c2c2c"></path></svg>